<svg xmlns="http://www.w3.org/2000/svg" xmlns:xlink="http://www.w3.org/1999/xlink" width="500" zoomAndPan="magnify" viewBox="0 0 375 374.999991" height="500" preserveAspectRatio="xMidYMid meet" version="1.0"><defs><g/><clipPath id="62f36beea9"><path d="M 56 218.882812 L 318 218.882812 L 318 224.882812 L 56 224.882812 Z M 56 218.882812 " clip-rule="nonzero"/></clipPath></defs><rect x="-37.5" width="450" fill="#ffffff" y="-37.499999" height="449.999989" fill-opacity="1"/><rect x="-37.5" width="450" fill="#ffffff" y="-37.499999" height="449.999989" fill-opacity="1"/><g fill="#d40000" fill-opacity="1"><g transform="translate(43.19668, 204.504083)"><g><path d="M 18.71875 -40.703125 C 22.050781 -40.703125 25.023438 -40.285156 27.640625 -39.453125 C 30.253906 -38.617188 32.304688 -37.304688 33.796875 -35.515625 C 35.296875 -33.734375 36.046875 -31.410156 36.046875 -28.546875 C 36.046875 -27.222656 35.789062 -25.929688 35.28125 -24.671875 C 34.78125 -23.421875 33.988281 -22.347656 32.90625 -21.453125 C 34.800781 -20.597656 36.195312 -19.347656 37.09375 -17.703125 C 37.988281 -16.054688 38.4375 -14.300781 38.4375 -12.4375 C 38.4375 -9.457031 37.675781 -7.046875 36.15625 -5.203125 C 34.644531 -3.359375 32.523438 -2.03125 29.796875 -1.21875 C 27.066406 -0.40625 23.859375 0 20.171875 0 L 0.578125 0 L 0.578125 -40.703125 Z M 19.9375 -26.046875 C 20.875 -26.046875 21.5625 -26.269531 22 -26.71875 C 22.445312 -27.164062 22.671875 -27.664062 22.671875 -28.21875 C 22.671875 -28.78125 22.445312 -29.285156 22 -29.734375 C 21.5625 -30.179688 20.875 -30.40625 19.9375 -30.40625 L 15.703125 -30.40625 L 15.703125 -11.109375 L 20.46875 -11.109375 C 21.4375 -11.109375 22.148438 -11.335938 22.609375 -11.796875 C 23.078125 -12.265625 23.3125 -12.796875 23.3125 -13.390625 C 23.3125 -13.992188 23.066406 -14.53125 22.578125 -15 C 22.097656 -15.46875 21.375 -15.703125 20.40625 -15.703125 L 16.6875 -15.703125 L 16.6875 -26.046875 Z M 19.9375 -26.046875 "/></g></g></g><g fill="#d40000" fill-opacity="1"><g transform="translate(83.660251, 204.504083)"><g><path d="M 22.84375 1.15625 C 19.78125 1.15625 16.898438 0.597656 14.203125 -0.515625 C 11.515625 -1.640625 9.148438 -3.179688 7.109375 -5.140625 C 5.078125 -7.097656 3.476562 -9.382812 2.3125 -12 C 1.15625 -14.625 0.578125 -17.40625 0.578125 -20.34375 C 0.578125 -23.332031 1.15625 -26.125 2.3125 -28.71875 C 3.476562 -31.3125 5.078125 -33.585938 7.109375 -35.546875 C 9.148438 -37.503906 11.515625 -39.046875 14.203125 -40.171875 C 16.898438 -41.296875 19.78125 -41.859375 22.84375 -41.859375 C 25.90625 -41.859375 28.785156 -41.296875 31.484375 -40.171875 C 34.179688 -39.046875 36.546875 -37.503906 38.578125 -35.546875 C 40.609375 -33.585938 42.195312 -31.3125 43.34375 -28.71875 C 44.488281 -26.125 45.0625 -23.332031 45.0625 -20.34375 C 45.0625 -17.40625 44.488281 -14.625 43.34375 -12 C 42.195312 -9.382812 40.609375 -7.097656 38.578125 -5.140625 C 36.546875 -3.179688 34.179688 -1.640625 31.484375 -0.515625 C 28.785156 0.597656 25.90625 1.15625 22.84375 1.15625 Z M 17.03125 -20.34375 C 17.03125 -18.757812 17.59375 -17.40625 18.71875 -16.28125 C 19.84375 -15.15625 21.203125 -14.59375 22.796875 -14.59375 C 24.378906 -14.59375 25.742188 -15.15625 26.890625 -16.28125 C 28.035156 -17.40625 28.609375 -18.757812 28.609375 -20.34375 C 28.609375 -21.9375 28.035156 -23.300781 26.890625 -24.4375 C 25.742188 -25.582031 24.378906 -26.15625 22.796875 -26.15625 C 21.203125 -26.15625 19.84375 -25.582031 18.71875 -24.4375 C 17.59375 -23.300781 17.03125 -21.9375 17.03125 -20.34375 Z M 17.03125 -20.34375 "/></g></g></g><g fill="#d40000" fill-opacity="1"><g transform="translate(130.925812, 204.504083)"><g><path d="M 0.640625 -40.703125 L 15.75 -40.703125 L 15.75 -14.703125 L 30.640625 -14.703125 L 30.640625 0 L 0.640625 0 Z M 0.640625 -40.703125 "/></g></g></g><g fill="#d40000" fill-opacity="1"><g transform="translate(163.657205, 204.504083)"><g><path d="M 0.578125 0 L 0.578125 -40.703125 L 19.890625 -40.703125 C 23.179688 -40.703125 26.054688 -40.128906 28.515625 -38.984375 C 30.972656 -37.835938 33.023438 -36.296875 34.671875 -34.359375 C 36.328125 -32.421875 37.5625 -30.238281 38.375 -27.8125 C 39.1875 -25.394531 39.59375 -22.90625 39.59375 -20.34375 C 39.59375 -17.789062 39.1875 -15.300781 38.375 -12.875 C 37.5625 -10.457031 36.328125 -8.28125 34.671875 -6.34375 C 33.023438 -4.40625 30.972656 -2.863281 28.515625 -1.71875 C 26.054688 -0.570312 23.179688 0 19.890625 0 Z M 20.171875 -15.75 C 21.222656 -15.75 22.054688 -16.066406 22.671875 -16.703125 C 23.296875 -17.347656 23.710938 -18.125 23.921875 -19.03125 C 24.140625 -19.945312 24.140625 -20.867188 23.921875 -21.796875 C 23.710938 -22.734375 23.296875 -23.519531 22.671875 -24.15625 C 22.054688 -24.789062 21.222656 -25.109375 20.171875 -25.109375 L 15.640625 -25.109375 L 15.640625 -15.75 Z M 20.171875 -15.75 "/></g></g></g><g fill="#000000" fill-opacity="1"><g transform="translate(207.238438, 205.928365)"><g><path d="M 9.65625 -0.109375 C 8.882812 -0.109375 8.050781 -0.078125 7.15625 -0.015625 C 6.269531 0.0351562 5.40625 -0.0234375 4.5625 -0.203125 C 3.726562 -0.378906 2.984375 -0.773438 2.328125 -1.390625 C 1.628906 -2.085938 1.203125 -2.921875 1.046875 -3.890625 C 0.890625 -4.867188 0.847656 -5.890625 0.921875 -6.953125 C 1.003906 -8.023438 1.066406 -8.988281 1.109375 -9.84375 C 1.179688 -11.507812 1.253906 -13.164062 1.328125 -14.8125 C 1.410156 -16.457031 1.492188 -18.117188 1.578125 -19.796875 C 1.648438 -21.734375 1.734375 -23.679688 1.828125 -25.640625 C 1.929688 -27.597656 2 -29.546875 2.03125 -31.484375 C 2.113281 -32.578125 2.113281 -33.78125 2.03125 -35.09375 C 1.957031 -36.414062 2.113281 -37.597656 2.5 -38.640625 C 2.851562 -39.617188 3.503906 -40.347656 4.453125 -40.828125 C 5.398438 -41.316406 6.515625 -41.628906 7.796875 -41.765625 C 9.078125 -41.898438 10.40625 -41.914062 11.78125 -41.8125 C 13.164062 -41.71875 14.46875 -41.582031 15.6875 -41.40625 C 16.90625 -41.238281 17.90625 -41.09375 18.6875 -40.96875 C 19.570312 -40.851562 20.421875 -40.679688 21.234375 -40.453125 C 22.054688 -40.222656 22.75 -39.84375 23.3125 -39.3125 C 23.875 -38.789062 24.210938 -38.003906 24.328125 -36.953125 C 24.484375 -35.867188 24.304688 -34.878906 23.796875 -33.984375 C 23.296875 -33.097656 22.539062 -32.441406 21.53125 -32.015625 C 20.757812 -31.703125 19.984375 -31.601562 19.203125 -31.71875 C 18.429688 -31.832031 17.65625 -31.96875 16.875 -32.125 C 16.101562 -32.28125 15.347656 -32.257812 14.609375 -32.0625 C 14.140625 -31.988281 13.671875 -31.679688 13.203125 -31.140625 C 12.742188 -30.597656 12.484375 -29.992188 12.421875 -29.328125 C 12.367188 -28.671875 12.671875 -28.09375 13.328125 -27.59375 C 13.828125 -27.238281 14.539062 -27.082031 15.46875 -27.125 C 16.40625 -27.164062 17.367188 -27.222656 18.359375 -27.296875 C 19.347656 -27.367188 20.15625 -27.289062 20.78125 -27.0625 C 21.789062 -26.675781 22.5 -26.171875 22.90625 -25.546875 C 23.3125 -24.929688 23.550781 -24.117188 23.625 -23.109375 C 23.78125 -21.898438 23.664062 -20.6875 23.28125 -19.46875 C 22.894531 -18.25 22.0625 -17.441406 20.78125 -17.046875 C 20 -16.859375 19.160156 -16.867188 18.265625 -17.078125 C 17.378906 -17.296875 16.507812 -17.453125 15.65625 -17.546875 C 14.800781 -17.640625 14.046875 -17.378906 13.390625 -16.765625 C 12.578125 -15.984375 12.238281 -15.289062 12.375 -14.6875 C 12.507812 -14.09375 12.925781 -13.582031 13.625 -13.15625 C 14.320312 -12.726562 15.085938 -12.394531 15.921875 -12.15625 C 16.753906 -11.925781 17.441406 -11.789062 17.984375 -11.75 C 18.796875 -11.71875 19.6875 -11.726562 20.65625 -11.78125 C 21.632812 -11.84375 22.585938 -11.820312 23.515625 -11.71875 C 24.441406 -11.625 25.253906 -11.304688 25.953125 -10.765625 C 26.617188 -10.296875 27.035156 -9.632812 27.203125 -8.78125 C 27.378906 -7.9375 27.410156 -7.078125 27.296875 -6.203125 C 27.179688 -5.328125 27.007812 -4.5625 26.78125 -3.90625 C 26.195312 -2.46875 25.359375 -1.546875 24.265625 -1.140625 C 23.179688 -0.734375 21.898438 -0.488281 20.421875 -0.40625 C 18.640625 -0.332031 16.851562 -0.285156 15.0625 -0.265625 C 13.28125 -0.242188 11.476562 -0.191406 9.65625 -0.109375 Z M 9.65625 -0.109375 "/></g></g></g><g fill="#000000" fill-opacity="1"><g transform="translate(239.657208, 205.928365)"><g><path d="M 18.5625 -0.0625 C 17.90625 -0.21875 17.398438 -0.59375 17.046875 -1.1875 C 16.703125 -1.789062 16.460938 -2.488281 16.328125 -3.28125 C 16.191406 -4.082031 16.101562 -4.859375 16.0625 -5.609375 C 16.019531 -6.367188 16 -6.984375 16 -7.453125 C 15.1875 -6.328125 14.148438 -5.363281 12.890625 -4.5625 C 11.628906 -3.769531 10.3125 -3.265625 8.9375 -3.046875 C 7.5625 -2.835938 6.269531 -3.003906 5.0625 -3.546875 C 3.863281 -4.085938 2.875 -5.117188 2.09375 -6.640625 C 1.351562 -8.191406 0.953125 -9.859375 0.890625 -11.640625 C 0.835938 -13.421875 1.0625 -15.191406 1.5625 -16.953125 C 2.070312 -18.722656 2.753906 -20.289062 3.609375 -21.65625 C 4.421875 -22.894531 5.410156 -24 6.578125 -24.96875 C 7.742188 -25.9375 9.003906 -26.625 10.359375 -27.03125 C 11.710938 -27.4375 13.03125 -27.4375 14.3125 -27.03125 C 15.59375 -26.625 16.757812 -25.6875 17.8125 -24.21875 C 18.425781 -23.363281 18.9375 -22.601562 19.34375 -21.9375 C 19.757812 -21.28125 20.070312 -20.582031 20.28125 -19.84375 C 20.5 -19.101562 20.625 -18.171875 20.65625 -17.046875 L 21.015625 -6.109375 C 21.015625 -5.679688 21.03125 -5.097656 21.0625 -4.359375 C 21.101562 -3.628906 21.078125 -2.90625 20.984375 -2.1875 C 20.890625 -1.46875 20.65625 -0.894531 20.28125 -0.46875 C 19.914062 -0.0390625 19.34375 0.09375 18.5625 -0.0625 Z M 11.171875 -13.21875 C 11.640625 -13.21875 12.125 -13.476562 12.625 -14 C 13.132812 -14.519531 13.59375 -15.097656 14 -15.734375 C 14.40625 -16.378906 14.664062 -16.878906 14.78125 -17.234375 C 15.164062 -18.085938 15.210938 -18.84375 14.921875 -19.5 C 14.640625 -20.15625 14.03125 -20.289062 13.09375 -19.90625 C 12.476562 -19.675781 11.878906 -19.132812 11.296875 -18.28125 C 10.710938 -17.425781 10.300781 -16.6875 10.0625 -16.0625 C 9.875 -15.445312 9.796875 -14.828125 9.828125 -14.203125 C 9.867188 -13.578125 10.316406 -13.25 11.171875 -13.21875 Z M 11.171875 -13.21875 "/></g></g></g><g fill="#000000" fill-opacity="1"><g transform="translate(265.848463, 205.928365)"><g><path d="M 15.421875 4.125 C 14.566406 4.832031 13.847656 5.039062 13.265625 4.75 C 12.679688 4.457031 12.207031 3.910156 11.84375 3.109375 C 11.476562 2.316406 11.195312 1.460938 11 0.546875 C 10.800781 -0.359375 10.644531 -1.101562 10.53125 -1.6875 C 10.070312 -4.476562 9.710938 -7.300781 9.453125 -10.15625 C 9.203125 -13.007812 9.019531 -15.851562 8.90625 -18.6875 C 8.820312 -19.96875 8.828125 -21.316406 8.921875 -22.734375 C 9.023438 -24.148438 9.046875 -25.410156 8.984375 -26.515625 C 8.929688 -27.617188 8.65625 -28.34375 8.15625 -28.6875 L 5.640625 -29.109375 C 5.054688 -29.179688 4.460938 -29.273438 3.859375 -29.390625 C 3.265625 -29.503906 2.695312 -29.679688 2.15625 -29.921875 C 1.1875 -30.378906 0.515625 -31.046875 0.140625 -31.921875 C -0.222656 -32.796875 0 -33.71875 0.8125 -34.6875 C 1.4375 -35.425781 2.269531 -35.898438 3.3125 -36.109375 C 4.363281 -36.328125 5.335938 -36.472656 6.234375 -36.546875 L 9.546875 -37.59375 C 9.816406 -38.019531 9.960938 -38.613281 9.984375 -39.375 C 10.003906 -40.132812 10.050781 -40.765625 10.125 -41.265625 C 10.320312 -42.316406 10.59375 -43.441406 10.9375 -44.640625 C 11.289062 -45.847656 11.914062 -46.816406 12.8125 -47.546875 C 13.582031 -48.328125 14.25 -48.585938 14.8125 -48.328125 C 15.375 -48.078125 15.847656 -47.535156 16.234375 -46.703125 C 16.628906 -45.867188 16.96875 -44.914062 17.25 -43.84375 C 17.539062 -42.78125 17.789062 -41.773438 18 -40.828125 C 18.21875 -39.878906 18.40625 -39.191406 18.5625 -38.765625 C 18.757812 -38.296875 18.882812 -37.972656 18.9375 -37.796875 C 19 -37.628906 19.125 -37.535156 19.3125 -37.515625 C 19.507812 -37.492188 19.921875 -37.460938 20.546875 -37.421875 C 21.710938 -37.347656 22.582031 -37.28125 23.15625 -37.21875 C 23.738281 -37.164062 24.222656 -37.085938 24.609375 -36.984375 C 25.003906 -36.890625 25.515625 -36.726562 26.140625 -36.5 C 26.910156 -36.226562 27.722656 -35.816406 28.578125 -35.265625 C 29.429688 -34.722656 29.972656 -34.007812 30.203125 -33.125 C 30.472656 -32.226562 30.304688 -31.488281 29.703125 -30.90625 C 29.109375 -30.320312 28.363281 -29.882812 27.46875 -29.59375 C 26.582031 -29.300781 25.804688 -29.078125 25.140625 -28.921875 L 20.375 -28.34375 C 19.90625 -28.226562 19.617188 -28.1875 19.515625 -28.21875 C 19.421875 -28.257812 19.382812 -28.257812 19.40625 -28.21875 C 19.425781 -28.1875 19.34375 -27.976562 19.15625 -27.59375 L 19.15625 -25.546875 C 19.15625 -22.128906 19.082031 -18.6875 18.9375 -15.21875 C 18.800781 -11.75 18.539062 -8.285156 18.15625 -4.828125 C 18.039062 -3.972656 17.914062 -2.953125 17.78125 -1.765625 C 17.644531 -0.585938 17.398438 0.539062 17.046875 1.625 C 16.703125 2.71875 16.160156 3.550781 15.421875 4.125 Z M 15.421875 4.125 "/></g></g></g><g fill="#000000" fill-opacity="1"><g transform="translate(300.362469, 205.928365)"><g><path d="M 8.5 2.796875 C 7.414062 3.179688 6.210938 3.421875 4.890625 3.515625 C 3.566406 3.617188 2.441406 3.242188 1.515625 2.390625 C 0.578125 1.535156 0.078125 0.644531 0.015625 -0.28125 C -0.0351562 -1.21875 0.304688 -2.148438 1.046875 -3.078125 C 1.628906 -3.816406 2.347656 -4.421875 3.203125 -4.890625 C 4.054688 -5.359375 4.914062 -5.8125 5.78125 -6.25 C 6.65625 -6.695312 7.460938 -7.203125 8.203125 -7.765625 C 8.941406 -8.328125 9.488281 -9.078125 9.84375 -10.015625 C 10.1875 -10.867188 10.234375 -11.582031 9.984375 -12.15625 C 9.734375 -12.738281 9.351562 -13.265625 8.84375 -13.734375 C 8.34375 -14.203125 7.835938 -14.6875 7.328125 -15.1875 C 6.472656 -16.125 5.863281 -17.171875 5.5 -18.328125 C 5.132812 -19.492188 5.101562 -20.71875 5.40625 -22 C 5.875 -24.050781 6.90625 -25.640625 8.5 -26.765625 C 10.09375 -27.898438 11.816406 -28.753906 13.671875 -29.328125 C 14.335938 -29.523438 15.113281 -29.710938 16 -29.890625 C 16.894531 -30.066406 17.78125 -30.132812 18.65625 -30.09375 C 19.53125 -30.050781 20.328125 -29.84375 21.046875 -29.46875 C 21.765625 -29.101562 22.273438 -28.476562 22.578125 -27.59375 C 23.003906 -26.425781 22.984375 -25.472656 22.515625 -24.734375 C 22.054688 -23.992188 21.34375 -23.375 20.375 -22.875 C 19.40625 -22.375 18.382812 -21.890625 17.3125 -21.421875 C 16.25 -20.953125 15.328125 -20.414062 14.546875 -19.8125 C 13.773438 -19.21875 13.347656 -18.453125 13.265625 -17.515625 C 13.234375 -16.742188 13.46875 -16.054688 13.96875 -15.453125 C 14.46875 -14.847656 15.046875 -14.289062 15.703125 -13.78125 C 16.367188 -13.28125 16.878906 -12.742188 17.234375 -12.171875 C 17.773438 -11.234375 18.0625 -10.25 18.09375 -9.21875 C 18.132812 -8.195312 18 -7.179688 17.6875 -6.171875 C 17.03125 -4.035156 15.847656 -2.203125 14.140625 -0.671875 C 12.429688 0.859375 10.550781 2.015625 8.5 2.796875 Z M 8.5 2.796875 "/></g></g></g><g clip-path="url(#62f36beea9)"><path fill="#000000" d="M 56.433594 221.515625 C 56.578125 221.574219 56.71875 221.632812 56.859375 221.6875 C 62.902344 221.660156 66.761719 221.535156 71.257812 221.4375 C 74.027344 221.410156 76.15625 221.429688 77.445312 221.503906 C 76.832031 221.554688 76.671875 221.617188 75.53125 221.652344 C 71.082031 221.800781 70.625 221.902344 78.328125 221.964844 C 80.789062 221.988281 81.765625 222.09375 84.929688 222.105469 C 88.566406 222.21875 90.835938 222.371094 97.554688 222.378906 C 94.820312 222.542969 89.714844 222.609375 88.871094 222.785156 C 88.054688 222.953125 82.074219 223.039062 75.5625 223.042969 C 74.976562 223.117188 74.386719 223.195312 73.800781 223.277344 C 74.777344 223.289062 75.746094 223.304688 76.722656 223.324219 C 76.921875 223.359375 77.125 223.390625 77.324219 223.425781 C 76.644531 223.625 77.988281 223.730469 86.726562 223.785156 C 95.414062 223.835938 100.738281 224.089844 107.207031 224.265625 C 108.816406 224.355469 111.964844 224.402344 114.78125 224.457031 C 123.792969 224.640625 123.742188 224.644531 131.613281 224.449219 C 133.457031 224.40625 134.964844 224.328125 137.574219 224.335938 C 151 224.375 163.578125 224.183594 177.351562 224.25 C 197.683594 224.355469 214.375 224.140625 229.996094 223.761719 C 236.851562 223.597656 243.417969 223.464844 245.289062 223.191406 C 255.597656 223.300781 265.882812 223.351562 274.972656 223.492188 C 284.800781 223.648438 295.515625 223.558594 305.671875 223.5625 C 313.078125 223.5625 313.746094 223.3125 316.425781 223.152344 C 318.582031 223.023438 315.863281 222.957031 313.011719 222.871094 C 307.546875 222.699219 299.644531 222.640625 293.476562 222.5 C 290.457031 222.433594 286.835938 222.382812 284.023438 222.304688 C 273.269531 222 273.890625 221.90625 287.847656 221.726562 C 295.640625 221.625 297.355469 221.378906 290.511719 221.242188 C 285.433594 221.144531 279.972656 221.050781 273.546875 221.007812 C 266.695312 220.964844 259.878906 220.902344 262.535156 220.628906 C 263.652344 220.511719 260.632812 220.492188 257.511719 220.476562 C 237.269531 220.371094 220.527344 220.035156 202.019531 219.820312 C 185.269531 219.625 171.039062 219.257812 150.707031 219.28125 C 143.710938 219.292969 136.339844 219.113281 129.261719 219.015625 C 119.820312 218.882812 113.191406 218.914062 109.152344 219.175781 C 106.304688 219.359375 102.980469 219.535156 97.554688 219.648438 C 90.601562 219.796875 95.625 219.984375 94.613281 220.144531 C 93.84375 220.265625 93.359375 220.3125 89.597656 220.382812 C 81.636719 220.535156 70.445312 220.570312 66.066406 220.859375 C 60.984375 220.851562 59.546875 220.925781 59.347656 221.058594 C 59.109375 221.210938 61.789062 221.386719 56.433594 221.515625 " fill-opacity="1" fill-rule="nonzero"/></g></svg>